{
    "patcher": {
        "fileversion": 1,
        "appversion": {
            "major": 9,
            "minor": 1,
            "revision": 2,
            "architecture": "x64",
            "modernui": 1
        },
        "classnamespace": "box",
        "rect": [ 164.0, 110.0, 1000.0, 674.0 ],
        "boxes": [
            {
                "box": {
                    "id": "obj-17",
                    "maxclass": "live.meter~",
                    "numinlets": 1,
                    "numoutlets": 2,
                    "outlettype": [ "float", "int" ],
                    "patching_rect": [ 356.5, 224.5, 5.0, 141.0 ],
                    "slidercolor": [ 0.079348079365577, 0.07934804057877, 0.079348050547289, 1.0 ]
                }
            },
            {
                "box": {
                    "id": "obj-16",
                    "maxclass": "live.meter~",
                    "numinlets": 1,
                    "numoutlets": 2,
                    "outlettype": [ "float", "int" ],
                    "patching_rect": [ 325.5, 224.5, 5.0, 141.0 ],
                    "slidercolor": [ 0.079348079365577, 0.07934804057877, 0.079348050547289, 1.0 ]
                }
            },
            {
                "box": {
                    "id": "obj-15",
                    "maxclass": "live.meter~",
                    "numinlets": 1,
                    "numoutlets": 2,
                    "outlettype": [ "float", "int" ],
                    "patching_rect": [ 248.5, 224.5, 5.0, 141.0 ],
                    "slidercolor": [ 0.079348079365577, 0.07934804057877, 0.079348050547289, 1.0 ]
                }
            },
            {
                "box": {
                    "id": "obj-14",
                    "maxclass": "gain~",
                    "multichannelvariant": 0,
                    "numinlets": 1,
                    "numoutlets": 2,
                    "outlettype": [ "signal", "" ],
                    "parameter_enable": 0,
                    "patching_rect": [ 332.5, 225.0, 22.0, 140.0 ]
                }
            },
            {
                "box": {
                    "id": "obj-13",
                    "maxclass": "newobj",
                    "numinlets": 1,
                    "numoutlets": 1,
                    "outlettype": [ "signal" ],
                    "patching_rect": [ 303.0, 190.0, 81.0, 22.0 ],
                    "text": "receive~ out2"
                }
            },
            {
                "box": {
                    "id": "obj-12",
                    "maxclass": "newobj",
                    "numinlets": 1,
                    "numoutlets": 1,
                    "outlettype": [ "signal" ],
                    "patching_rect": [ 195.0, 190.0, 81.0, 22.0 ],
                    "text": "receive~ out1"
                }
            },
            {
                "box": {
                    "id": "obj-11",
                    "maxclass": "ezdac~",
                    "numinlets": 2,
                    "numoutlets": 0,
                    "patching_rect": [ 265.0, 448.0, 45.0, 45.0 ]
                }
            },
            {
                "box": {
                    "format": 6,
                    "id": "obj-9",
                    "maxclass": "flonum",
                    "numinlets": 1,
                    "numoutlets": 2,
                    "outlettype": [ "", "bang" ],
                    "parameter_enable": 0,
                    "patching_rect": [ 117.0, 427.0, 50.0, 22.0 ]
                }
            },
            {
                "box": {
                    "id": "obj-7",
                    "maxclass": "newobj",
                    "numinlets": 1,
                    "numoutlets": 1,
                    "outlettype": [ "" ],
                    "patching_rect": [ 117.0, 379.0, 111.0, 22.0 ],
                    "text": "expr ($i1 - 128)*0.6"
                }
            },
            {
                "box": {
                    "id": "obj-6",
                    "maxclass": "gain~",
                    "multichannelvariant": 0,
                    "numinlets": 1,
                    "numoutlets": 2,
                    "outlettype": [ "signal", "" ],
                    "parameter_enable": 0,
                    "patching_rect": [ 224.5, 225.0, 22.0, 140.0 ]
                }
            },
            {
                "box": {
                    "id": "obj-4",
                    "maxclass": "live.meter~",
                    "numinlets": 1,
                    "numoutlets": 2,
                    "outlettype": [ "float", "int" ],
                    "patching_rect": [ 217.5, 224.5, 5.0, 141.0 ],
                    "slidercolor": [ 0.079348079365577, 0.07934804057877, 0.079348050547289, 1.0 ]
                }
            },
            {
                "box": {
                    "id": "obj-3",
                    "maxclass": "slider",
                    "numinlets": 1,
                    "numoutlets": 1,
                    "outlettype": [ "" ],
                    "parameter_enable": 0,
                    "patching_rect": [ 117.0, 204.0, 20.0, 140.0 ]
                }
            },
            {
                "box": {
                    "id": "obj-1",
                    "maxclass": "newobj",
                    "numinlets": 1,
                    "numoutlets": 1,
                    "outlettype": [ "" ],
                    "patching_rect": [ 117.0, 154.0, 83.0, 22.0 ],
                    "text": "loadmess 128"
                }
            }
        ],
        "lines": [
            {
                "patchline": {
                    "destination": [ "obj-3", 0 ],
                    "source": [ "obj-1", 0 ]
                }
            },
            {
                "patchline": {
                    "destination": [ "obj-4", 0 ],
                    "order": 1,
                    "source": [ "obj-12", 0 ]
                }
            },
            {
                "patchline": {
                    "destination": [ "obj-6", 0 ],
                    "order": 0,
                    "source": [ "obj-12", 0 ]
                }
            },
            {
                "patchline": {
                    "destination": [ "obj-14", 0 ],
                    "order": 0,
                    "source": [ "obj-13", 0 ]
                }
            },
            {
                "patchline": {
                    "destination": [ "obj-16", 0 ],
                    "order": 1,
                    "source": [ "obj-13", 0 ]
                }
            },
            {
                "patchline": {
                    "destination": [ "obj-11", 1 ],
                    "order": 1,
                    "source": [ "obj-14", 0 ]
                }
            },
            {
                "patchline": {
                    "destination": [ "obj-17", 0 ],
                    "order": 0,
                    "source": [ "obj-14", 0 ]
                }
            },
            {
                "patchline": {
                    "destination": [ "obj-14", 0 ],
                    "order": 0,
                    "source": [ "obj-3", 0 ]
                }
            },
            {
                "patchline": {
                    "destination": [ "obj-6", 0 ],
                    "order": 1,
                    "source": [ "obj-3", 0 ]
                }
            },
            {
                "patchline": {
                    "destination": [ "obj-7", 0 ],
                    "order": 2,
                    "source": [ "obj-3", 0 ]
                }
            },
            {
                "patchline": {
                    "destination": [ "obj-11", 0 ],
                    "order": 0,
                    "source": [ "obj-6", 0 ]
                }
            },
            {
                "patchline": {
                    "destination": [ "obj-15", 0 ],
                    "order": 1,
                    "source": [ "obj-6", 0 ]
                }
            },
            {
                "patchline": {
                    "destination": [ "obj-9", 0 ],
                    "source": [ "obj-7", 0 ]
                }
            }
        ],
        "autosave": 0
    }
}