{
    "patcher": {
        "fileversion": 1,
        "appversion": {
            "major": 9,
            "minor": 1,
            "revision": 2,
            "architecture": "x64",
            "modernui": 1
        },
        "classnamespace": "box",
        "rect": [ 41.0, 87.0, 595.0, 582.0 ],
        "boxes": [
            {
                "box": {
                    "id": "obj-42",
                    "lastchannelcount": 0,
                    "maxclass": "live.gain~",
                    "numinlets": 2,
                    "numoutlets": 5,
                    "outlettype": [ "signal", "signal", "", "float", "list" ],
                    "parameter_enable": 1,
                    "patching_rect": [ 458.7412633895874, 390.2097941637039, 48.0, 136.0 ],
                    "saved_attribute_attributes": {
                        "valueof": {
                            "parameter_longname": "live.gain~[5]",
                            "parameter_mmax": 6.0,
                            "parameter_mmin": -70.0,
                            "parameter_modmode": 3,
                            "parameter_shortname": "live.gain~[5]",
                            "parameter_type": 0,
                            "parameter_unitstyle": 4
                        }
                    },
                    "varname": "live.gain~[1]"
                }
            },
            {
                "box": {
                    "id": "obj-41",
                    "maxclass": "message",
                    "numinlets": 2,
                    "numoutlets": 1,
                    "outlettype": [ "" ],
                    "patching_rect": [ 910.75272834301, 298.32430601119995, 103.0, 22.0 ],
                    "text": "range -3000 3000"
                }
            },
            {
                "box": {
                    "id": "obj-39",
                    "maxclass": "number",
                    "numinlets": 1,
                    "numoutlets": 2,
                    "outlettype": [ "", "bang" ],
                    "parameter_enable": 0,
                    "patching_rect": [ 1015.2778261899948, 549.3793387413025, 50.0, 22.0 ]
                }
            },
            {
                "box": {
                    "id": "obj-37",
                    "maxclass": "newobj",
                    "numinlets": 3,
                    "numoutlets": 2,
                    "outlettype": [ "", "bang" ],
                    "patching_rect": [ 1015.0, 513.0, 40.0, 22.0 ],
                    "text": "line"
                }
            },
            {
                "box": {
                    "id": "obj-36",
                    "maxclass": "message",
                    "numinlets": 2,
                    "numoutlets": 1,
                    "outlettype": [ "" ],
                    "patching_rect": [ 1015.2778261899948, 484.0, 32.0, 22.0 ],
                    "text": "$1 5"
                }
            },
            {
                "box": {
                    "id": "obj-34",
                    "maxclass": "newobj",
                    "numinlets": 1,
                    "numoutlets": 1,
                    "outlettype": [ "" ],
                    "patching_rect": [ 1015.2778261899948, 456.0, 39.0, 22.0 ],
                    "text": "dbtoa"
                }
            },
            {
                "box": {
                    "id": "obj-33",
                    "maxclass": "message",
                    "numinlets": 2,
                    "numoutlets": 1,
                    "outlettype": [ "" ],
                    "patching_rect": [ 1015.2778261899948, 399.621600151062, 29.5, 22.0 ],
                    "text": "-96"
                }
            },
            {
                "box": {
                    "id": "obj-31",
                    "maxclass": "number",
                    "numinlets": 1,
                    "numoutlets": 2,
                    "outlettype": [ "", "bang" ],
                    "parameter_enable": 0,
                    "patching_rect": [ 1015.2778261899948, 428.3783497810364, 50.0, 22.0 ]
                }
            },
            {
                "box": {
                    "id": "obj-25",
                    "maxclass": "newobj",
                    "numinlets": 0,
                    "numoutlets": 1,
                    "outlettype": [ "" ],
                    "patching_rect": [ 928.5714197158813, 23.214285492897034, 56.0, 22.0 ],
                    "text": "r velocity"
                }
            },
            {
                "box": {
                    "id": "obj-21",
                    "maxclass": "newobj",
                    "numinlets": 0,
                    "numoutlets": 1,
                    "outlettype": [ "" ],
                    "patching_rect": [ 785.7142782211304, 23.214285492897034, 41.0, 22.0 ],
                    "text": "r pitch"
                }
            },
            {
                "box": {
                    "id": "obj-17",
                    "maxclass": "newobj",
                    "numinlets": 2,
                    "numoutlets": 1,
                    "outlettype": [ "signal" ],
                    "patching_rect": [ 733.3333683013916, 586.2069272994995, 340.27779400348663, 22.0 ],
                    "text": "*~ 1."
                }
            },
            {
                "box": {
                    "comment": "",
                    "id": "obj-16",
                    "index": 1,
                    "maxclass": "inlet",
                    "numinlets": 0,
                    "numoutlets": 1,
                    "outlettype": [ "signal" ],
                    "patching_rect": [ 735.75865650177, 541.3793387413025, 30.0, 30.0 ]
                }
            },
            {
                "box": {
                    "id": "obj-23",
                    "maxclass": "newobj",
                    "numinlets": 2,
                    "numoutlets": 2,
                    "outlettype": [ "signal", "bang" ],
                    "patching_rect": [ 840.8108067512512, 428.3783497810364, 34.0, 22.0 ],
                    "text": "line~"
                }
            },
            {
                "box": {
                    "id": "obj-22",
                    "maxclass": "message",
                    "numinlets": 2,
                    "numoutlets": 1,
                    "outlettype": [ "" ],
                    "patching_rect": [ 817.5675129890442, 274.32430601119995, 162.0, 22.0 ],
                    "text": "range -3000 0, setdomain 70"
                }
            },
            {
                "box": {
                    "addpoints": [ 0.0, 1.0, 0, 5.212746072322764, -3000.0, 0, 11.854513148044019, 1.0, 0, 70.0, 1.0, 0 ],
                    "classic_curve": 1,
                    "domain": 70.0,
                    "id": "obj-19",
                    "maxclass": "function",
                    "numinlets": 1,
                    "numoutlets": 4,
                    "outlettype": [ "float", "", "", "bang" ],
                    "parameter_enable": 0,
                    "patching_rect": [ 780.0, 321.621600151062, 200.0, 100.0 ],
                    "range": [ -3000.0, 0.0 ]
                }
            },
            {
                "box": {
                    "id": "obj-18",
                    "maxclass": "message",
                    "numinlets": 2,
                    "numoutlets": 1,
                    "outlettype": [ "" ],
                    "patching_rect": [ 997.8571407794952, 211.99999856948853, 51.0, 22.0 ],
                    "text": "pitch $1"
                }
            },
            {
                "box": {
                    "format": 6,
                    "id": "obj-15",
                    "maxclass": "flonum",
                    "numinlets": 1,
                    "numoutlets": 2,
                    "outlettype": [ "", "bang" ],
                    "parameter_enable": 0,
                    "patching_rect": [ 997.8571407794952, 183.42857027053833, 50.0, 22.0 ]
                }
            },
            {
                "box": {
                    "id": "obj-13",
                    "maxclass": "newobj",
                    "numinlets": 1,
                    "numoutlets": 1,
                    "outlettype": [ "" ],
                    "patching_rect": [ 997.8571407794952, 158.4285705089569, 32.0, 22.0 ],
                    "text": "mtof"
                }
            },
            {
                "box": {
                    "id": "obj-3",
                    "maxclass": "newobj",
                    "numinlets": 1,
                    "numoutlets": 3,
                    "outlettype": [ "bang", "bang", "int" ],
                    "patching_rect": [ 780.0, 126.28571367263794, 237.0, 22.0 ],
                    "text": "t b b i"
                }
            },
            {
                "box": {
                    "id": "obj-2",
                    "maxclass": "kslider",
                    "numinlets": 2,
                    "numoutlets": 2,
                    "outlettype": [ "int", "int" ],
                    "parameter_enable": 0,
                    "patching_rect": [ 780.0, 62.0, 336.0, 53.0 ]
                }
            },
            {
                "box": {
                    "id": "obj-27",
                    "maxclass": "button",
                    "numinlets": 1,
                    "numoutlets": 1,
                    "outlettype": [ "bang" ],
                    "parameter_enable": 0,
                    "patching_rect": [ 462.1621313095093, 40.83673429489136, 24.0, 24.0 ]
                }
            },
            {
                "box": {
                    "id": "obj-24",
                    "maxclass": "newobj",
                    "numinlets": 1,
                    "numoutlets": 1,
                    "outlettype": [ "" ],
                    "patching_rect": [ 462.1621313095093, 259.4594421386719, 100.0, 22.0 ],
                    "saved_object_attributes": {
                        "channel": 1,
                        "gain": 1.0,
                        "name": "PointOutput"
                    },
                    "text": "mlys.point-output"
                }
            },
            {
                "box": {
                    "id": "obj-12",
                    "linecount": 2,
                    "maxclass": "newobj",
                    "numinlets": 1,
                    "numoutlets": 1,
                    "outlettype": [ "" ],
                    "patching_rect": [ 462.1621313095093, 214.86485052108765, 302.985063791275, 35.0 ],
                    "saved_object_attributes": {
                        "access-in-initial-position": [ 0.05000000074505806 ],
                        "access-out-initial-position": [ 0.10000000149011612 ],
                        "const-loss": 1.0,
                        "density": 1000.0,
                        "freq-loss": 1.0,
                        "length": 1.0,
                        "modes": 160,
                        "name": "MonoString",
                        "pitch": 123.4708251953125,
                        "pitch-parameter": "tension",
                        "radius": 0.0010000000474974513,
                        "tension": 94.66000366210938,
                        "young": [ 1.0, 9.0 ]
                    },
                    "text": "mlys.mono-string 1 1 @name MonoString @pitch-parameter tension @modes 160"
                }
            },
            {
                "box": {
                    "id": "obj-11",
                    "maxclass": "newobj",
                    "numinlets": 1,
                    "numoutlets": 1,
                    "outlettype": [ "" ],
                    "patching_rect": [ 462.1621313095093, 181.08106899261475, 63.0, 22.0 ],
                    "saved_object_attributes": {
                        "force": 0.0,
                        "name": "ForceConnection",
                        "weight": 1.0
                    },
                    "text": "mlys.force"
                }
            },
            {
                "box": {
                    "id": "obj-10",
                    "maxclass": "newobj",
                    "numinlets": 1,
                    "numoutlets": 1,
                    "outlettype": [ "" ],
                    "patching_rect": [ 462.1621313095093, 147.29728746414185, 68.0, 22.0 ],
                    "saved_object_attributes": {
                        "name": "SignalController",
                        "target-attribute": "none"
                    },
                    "text": "mlys.signal"
                }
            },
            {
                "box": {
                    "id": "obj-9",
                    "maxclass": "newobj",
                    "numinlets": 1,
                    "numoutlets": 1,
                    "outlettype": [ "" ],
                    "patching_rect": [ 462.1621313095093, 113.51350593566895, 93.0, 22.0 ],
                    "saved_object_attributes": {
                        "channel": 1,
                        "gain": 1.0,
                        "name": "PointInput"
                    },
                    "text": "mlys.point-input"
                }
            },
            {
                "box": {
                    "id": "obj-8",
                    "maxclass": "newobj",
                    "numinlets": 0,
                    "numoutlets": 1,
                    "outlettype": [ "" ],
                    "patching_rect": [ 552.7026658058167, 302.7026824951172, 74.0, 22.0 ],
                    "text": "r to.Modalys"
                }
            },
            {
                "box": {
                    "id": "obj-7",
                    "maxclass": "newobj",
                    "numinlets": 1,
                    "numoutlets": 1,
                    "outlettype": [ "" ],
                    "patching_rect": [ 462.1621313095093, 302.7026824951172, 80.4615159034729, 22.0 ],
                    "saved_object_attributes": {
                        "angle-mode": "degree",
                        "multi": 0,
                        "precision": "double"
                    },
                    "text": "mlys.script"
                }
            },
            {
                "box": {
                    "comment": "",
                    "id": "obj-5",
                    "index": 1,
                    "maxclass": "outlet",
                    "numinlets": 1,
                    "numoutlets": 0,
                    "patching_rect": [ 462.1621313095093, 562.1621246337891, 30.0, 30.0 ]
                }
            },
            {
                "box": {
                    "id": "obj-1",
                    "maxclass": "newobj",
                    "numinlets": 1,
                    "numoutlets": 2,
                    "outlettype": [ "signal", "" ],
                    "patching_rect": [ 462.1621313095093, 343.24322032928467, 80.0, 22.0 ],
                    "saved_object_attributes": {
                        "precision": ""
                    },
                    "text": "modalys~ 1 1"
                }
            },
            {
                "box": {
                    "id": "obj-56",
                    "maxclass": "live.dial",
                    "numinlets": 1,
                    "numoutlets": 2,
                    "outlettype": [ "", "float" ],
                    "parameter_enable": 1,
                    "patching_rect": [ 59.0, 15.0, 74.0, 48.0 ],
                    "saved_attribute_attributes": {
                        "valueof": {
                            "parameter_exponent": 3.0,
                            "parameter_initial": [ 1 ],
                            "parameter_initial_enable": 1,
                            "parameter_longname": "live.dial[1]",
                            "parameter_mmax": 10.0,
                            "parameter_modmode": 0,
                            "parameter_shortname": "highFreqDamp",
                            "parameter_type": 0,
                            "parameter_unitstyle": 1
                        }
                    },
                    "varname": "live.dial[1]"
                }
            },
            {
                "box": {
                    "id": "obj-51",
                    "maxclass": "live.dial",
                    "numinlets": 1,
                    "numoutlets": 2,
                    "outlettype": [ "", "float" ],
                    "parameter_enable": 1,
                    "patching_rect": [ 14.0, 15.0, 41.0, 48.0 ],
                    "saved_attribute_attributes": {
                        "valueof": {
                            "parameter_initial": [ 1 ],
                            "parameter_initial_enable": 1,
                            "parameter_longname": "live.dial",
                            "parameter_mmax": 10.0,
                            "parameter_modmode": 0,
                            "parameter_shortname": "damping",
                            "parameter_type": 0,
                            "parameter_unitstyle": 1
                        }
                    },
                    "varname": "live.dial"
                }
            },
            {
                "box": {
                    "id": "obj-50",
                    "maxclass": "live.slider",
                    "numinlets": 1,
                    "numoutlets": 2,
                    "orientation": 1,
                    "outlettype": [ "", "float" ],
                    "parameter_enable": 1,
                    "patching_rect": [ 131.0, 87.0, 216.0, 41.0 ],
                    "saved_attribute_attributes": {
                        "valueof": {
                            "parameter_initial": [ 0.25 ],
                            "parameter_initial_enable": 1,
                            "parameter_longname": "live.slider[1]",
                            "parameter_mmax": 1.0,
                            "parameter_modmode": 0,
                            "parameter_shortname": "output.position",
                            "parameter_type": 0,
                            "parameter_unitstyle": 1
                        }
                    },
                    "varname": "live.slider[1]"
                }
            },
            {
                "box": {
                    "id": "obj-20",
                    "maxclass": "live.slider",
                    "numinlets": 1,
                    "numoutlets": 2,
                    "orientation": 1,
                    "outlettype": [ "", "float" ],
                    "parameter_enable": 1,
                    "patching_rect": [ 142.0, 15.0, 216.0, 41.0 ],
                    "saved_attribute_attributes": {
                        "valueof": {
                            "parameter_initial": [ 0.28 ],
                            "parameter_initial_enable": 1,
                            "parameter_longname": "live.slider",
                            "parameter_mmax": 1.0,
                            "parameter_modmode": 0,
                            "parameter_shortname": "force.position",
                            "parameter_type": 0,
                            "parameter_unitstyle": 1
                        }
                    },
                    "varname": "live.slider"
                }
            }
        ],
        "lines": [
            {
                "patchline": {
                    "destination": [ "obj-42", 0 ],
                    "source": [ "obj-1", 0 ]
                }
            },
            {
                "patchline": {
                    "destination": [ "obj-11", 0 ],
                    "source": [ "obj-10", 0 ]
                }
            },
            {
                "patchline": {
                    "destination": [ "obj-12", 0 ],
                    "source": [ "obj-11", 0 ]
                }
            },
            {
                "patchline": {
                    "destination": [ "obj-24", 0 ],
                    "source": [ "obj-12", 0 ]
                }
            },
            {
                "patchline": {
                    "destination": [ "obj-15", 0 ],
                    "source": [ "obj-13", 0 ]
                }
            },
            {
                "patchline": {
                    "destination": [ "obj-18", 0 ],
                    "source": [ "obj-15", 0 ]
                }
            },
            {
                "patchline": {
                    "destination": [ "obj-17", 0 ],
                    "source": [ "obj-16", 0 ]
                }
            },
            {
                "patchline": {
                    "destination": [ "obj-1", 0 ],
                    "source": [ "obj-17", 0 ]
                }
            },
            {
                "patchline": {
                    "destination": [ "obj-12", 0 ],
                    "source": [ "obj-18", 0 ]
                }
            },
            {
                "patchline": {
                    "destination": [ "obj-23", 0 ],
                    "source": [ "obj-19", 1 ]
                }
            },
            {
                "patchline": {
                    "destination": [ "obj-3", 0 ],
                    "source": [ "obj-2", 0 ]
                }
            },
            {
                "patchline": {
                    "destination": [ "obj-2", 0 ],
                    "source": [ "obj-21", 0 ]
                }
            },
            {
                "patchline": {
                    "destination": [ "obj-19", 0 ],
                    "source": [ "obj-22", 0 ]
                }
            },
            {
                "patchline": {
                    "destination": [ "obj-1", 0 ],
                    "source": [ "obj-23", 0 ]
                }
            },
            {
                "patchline": {
                    "destination": [ "obj-7", 0 ],
                    "source": [ "obj-24", 0 ]
                }
            },
            {
                "patchline": {
                    "destination": [ "obj-2", 1 ],
                    "source": [ "obj-25", 0 ]
                }
            },
            {
                "patchline": {
                    "destination": [ "obj-9", 0 ],
                    "source": [ "obj-27", 0 ]
                }
            },
            {
                "patchline": {
                    "destination": [ "obj-13", 0 ],
                    "source": [ "obj-3", 2 ]
                }
            },
            {
                "patchline": {
                    "destination": [ "obj-19", 0 ],
                    "source": [ "obj-3", 0 ]
                }
            },
            {
                "patchline": {
                    "destination": [ "obj-27", 0 ],
                    "source": [ "obj-3", 1 ]
                }
            },
            {
                "patchline": {
                    "destination": [ "obj-34", 0 ],
                    "source": [ "obj-31", 0 ]
                }
            },
            {
                "patchline": {
                    "destination": [ "obj-31", 0 ],
                    "source": [ "obj-33", 0 ]
                }
            },
            {
                "patchline": {
                    "destination": [ "obj-36", 0 ],
                    "source": [ "obj-34", 0 ]
                }
            },
            {
                "patchline": {
                    "destination": [ "obj-37", 0 ],
                    "source": [ "obj-36", 0 ]
                }
            },
            {
                "patchline": {
                    "destination": [ "obj-39", 0 ],
                    "source": [ "obj-37", 0 ]
                }
            },
            {
                "patchline": {
                    "destination": [ "obj-17", 1 ],
                    "source": [ "obj-39", 0 ]
                }
            },
            {
                "patchline": {
                    "destination": [ "obj-19", 0 ],
                    "source": [ "obj-41", 0 ]
                }
            },
            {
                "patchline": {
                    "destination": [ "obj-5", 0 ],
                    "source": [ "obj-42", 0 ]
                }
            },
            {
                "patchline": {
                    "destination": [ "obj-1", 0 ],
                    "source": [ "obj-7", 0 ]
                }
            },
            {
                "patchline": {
                    "destination": [ "obj-1", 0 ],
                    "source": [ "obj-8", 0 ]
                }
            },
            {
                "patchline": {
                    "destination": [ "obj-10", 0 ],
                    "source": [ "obj-9", 0 ]
                }
            }
        ]
    }
}