{
    "patcher": {
        "fileversion": 1,
        "appversion": {
            "major": 9,
            "minor": 1,
            "revision": 2,
            "architecture": "x64",
            "modernui": 1
        },
        "classnamespace": "box",
        "rect": [ 59.0, 106.0, 636.0, 674.0 ],
        "boxes": [
            {
                "box": {
                    "data": {
                        "clips": [
                            {
                                "absolutepath": "Macintosh HD:/Users/gideonberrie/Library/CloudStorage/OneDrive-Personal/Desktop/mp3s/Numbers - 2009 Remaster.mp3",
                                "filename": "Numbers - 2009 Remaster.mp3",
                                "filekind": "audiofile",
                                "id": "u940009111",
                                "loop": 0,
                                "content_state": {                                }
                            }
                        ]
                    },
                    "id": "obj-5",
                    "maxclass": "playlist~",
                    "mode": "basic",
                    "numinlets": 1,
                    "numoutlets": 5,
                    "outlettype": [ "signal", "signal", "signal", "", "dictionary" ],
                    "parameter_enable": 0,
                    "patching_rect": [ 247.0, 39.0, 150.0, 30.0 ],
                    "quality": "basic",
                    "saved_attribute_attributes": {
                        "candicane2": {
                            "expression": ""
                        },
                        "candicane3": {
                            "expression": ""
                        },
                        "candicane4": {
                            "expression": ""
                        },
                        "candicane5": {
                            "expression": ""
                        },
                        "candicane6": {
                            "expression": ""
                        },
                        "candicane7": {
                            "expression": ""
                        },
                        "candicane8": {
                            "expression": ""
                        }
                    }
                }
            },
            {
                "box": {
                    "id": "obj-36",
                    "maxclass": "toggle",
                    "numinlets": 1,
                    "numoutlets": 1,
                    "outlettype": [ "int" ],
                    "parameter_enable": 0,
                    "patching_rect": [ 371.0, 306.0, 24.0, 24.0 ]
                }
            },
            {
                "box": {
                    "id": "obj-35",
                    "maxclass": "toggle",
                    "numinlets": 1,
                    "numoutlets": 1,
                    "outlettype": [ "int" ],
                    "parameter_enable": 0,
                    "patching_rect": [ 229.0, 299.0, 24.0, 24.0 ]
                }
            },
            {
                "box": {
                    "id": "obj-34",
                    "maxclass": "newobj",
                    "numinlets": 2,
                    "numoutlets": 1,
                    "outlettype": [ "" ],
                    "patching_rect": [ 371.0, 352.0, 93.0, 22.0 ],
                    "text": "sh.move.source"
                }
            },
            {
                "box": {
                    "id": "obj-33",
                    "maxclass": "newobj",
                    "numinlets": 2,
                    "numoutlets": 1,
                    "outlettype": [ "" ],
                    "patching_rect": [ 223.0, 352.0, 93.0, 22.0 ],
                    "text": "sh.move.source"
                }
            },
            {
                "box": {
                    "id": "obj-32",
                    "maxclass": "newobj",
                    "numinlets": 2,
                    "numoutlets": 1,
                    "outlettype": [ "" ],
                    "patching_rect": [ 229.0, 352.0, 93.0, 22.0 ],
                    "text": "sh.move.source"
                }
            },
            {
                "box": {
                    "id": "obj-31",
                    "maxclass": "number",
                    "numinlets": 1,
                    "numoutlets": 2,
                    "outlettype": [ "", "bang" ],
                    "parameter_enable": 0,
                    "patching_rect": [ 336.0, 261.0, 50.0, 22.0 ]
                }
            },
            {
                "box": {
                    "id": "obj-30",
                    "maxclass": "number",
                    "numinlets": 1,
                    "numoutlets": 2,
                    "outlettype": [ "", "bang" ],
                    "parameter_enable": 0,
                    "patching_rect": [ 229.0, 261.0, 50.0, 22.0 ]
                }
            },
            {
                "box": {
                    "id": "obj-29",
                    "maxclass": "number",
                    "numinlets": 1,
                    "numoutlets": 2,
                    "outlettype": [ "", "bang" ],
                    "parameter_enable": 0,
                    "patching_rect": [ 135.0, 261.0, 50.0, 22.0 ]
                }
            },
            {
                "box": {
                    "id": "obj-27",
                    "maxclass": "newobj",
                    "numinlets": 1,
                    "numoutlets": 0,
                    "patching_rect": [ 135.0, 498.0, 93.0, 22.0 ],
                    "text": "s spat.oper.msg"
                }
            },
            {
                "box": {
                    "id": "obj-26",
                    "maxclass": "newobj",
                    "numinlets": 1,
                    "numoutlets": 1,
                    "outlettype": [ "" ],
                    "patching_rect": [ 371.0, 423.0, 127.0, 22.0 ],
                    "text": "prepend /source/3/xyz"
                }
            },
            {
                "box": {
                    "id": "obj-25",
                    "maxclass": "newobj",
                    "numinlets": 1,
                    "numoutlets": 1,
                    "outlettype": [ "" ],
                    "patching_rect": [ 223.0, 423.0, 127.0, 22.0 ],
                    "text": "prepend /source/2/xyz"
                }
            },
            {
                "box": {
                    "id": "obj-24",
                    "maxclass": "newobj",
                    "numinlets": 1,
                    "numoutlets": 1,
                    "outlettype": [ "" ],
                    "patching_rect": [ 61.0, 423.0, 127.0, 22.0 ],
                    "text": "prepend /source/1/xyz"
                }
            },
            {
                "box": {
                    "id": "obj-23",
                    "maxclass": "newobj",
                    "numinlets": 2,
                    "numoutlets": 1,
                    "outlettype": [ "" ],
                    "patching_rect": [ 59.0, 352.0, 93.0, 22.0 ],
                    "text": "sh.move.source"
                }
            },
            {
                "box": {
                    "id": "obj-22",
                    "maxclass": "toggle",
                    "numinlets": 1,
                    "numoutlets": 1,
                    "outlettype": [ "int" ],
                    "parameter_enable": 0,
                    "patching_rect": [ 60.0, 299.0, 24.0, 24.0 ]
                }
            },
            {
                "box": {
                    "id": "obj-20",
                    "maxclass": "toggle",
                    "numinlets": 1,
                    "numoutlets": 1,
                    "outlettype": [ "int" ],
                    "parameter_enable": 0,
                    "patching_rect": [ 60.0, 260.0, 24.0, 24.0 ]
                }
            },
            {
                "box": {
                    "id": "obj-15",
                    "maxclass": "newobj",
                    "numinlets": 1,
                    "numoutlets": 0,
                    "patching_rect": [ 445.0, 179.0, 91.0, 22.0 ],
                    "text": "send~ 3.source"
                }
            },
            {
                "box": {
                    "id": "obj-14",
                    "maxclass": "newobj",
                    "numinlets": 1,
                    "numoutlets": 0,
                    "patching_rect": [ 247.0, 179.0, 91.0, 22.0 ],
                    "text": "send~ 2.source"
                }
            },
            {
                "box": {
                    "id": "obj-13",
                    "maxclass": "newobj",
                    "numinlets": 1,
                    "numoutlets": 0,
                    "patching_rect": [ 60.0, 179.0, 91.0, 22.0 ],
                    "text": "send~ 1.source"
                }
            },
            {
                "box": {
                    "id": "obj-12",
                    "maxclass": "newobj",
                    "numinlets": 1,
                    "numoutlets": 1,
                    "outlettype": [ "signal" ],
                    "patching_rect": [ 445.0, 128.0, 119.0, 22.0 ],
                    "text": "01a.mlys.string.force"
                }
            },
            {
                "box": {
                    "id": "obj-11",
                    "maxclass": "newobj",
                    "numinlets": 1,
                    "numoutlets": 1,
                    "outlettype": [ "signal" ],
                    "patching_rect": [ 247.0, 128.0, 111.0, 22.0 ],
                    "text": "Karplus-Strong.v02"
                }
            },
            {
                "box": {
                    "id": "obj-10",
                    "maxclass": "newobj",
                    "numinlets": 1,
                    "numoutlets": 1,
                    "outlettype": [ "signal" ],
                    "patching_rect": [ 60.0, 128.0, 119.0, 22.0 ],
                    "text": "modres.from.a.chord"
                }
            },
            {
                "box": {
                    "data": {
                        "clips": [
                            {
                                "absolutepath": "Macintosh HD:/Users/gideonberrie/Library/CloudStorage/OneDrive-Personal/Desktop/sound-synth-tech/week.5b/synth-tech-media-master/instrumental.samples/Vn-jette-E5-mf.aif",
                                "filename": "Vn-jette-E5-mf.aif",
                                "filekind": "audiofile",
                                "id": "u853001505",
                                "loop": 1,
                                "content_state": {
                                    "loop": 1
                                }
                            }
                        ]
                    },
                    "id": "obj-6",
                    "maxclass": "playlist~",
                    "mode": "basic",
                    "numinlets": 1,
                    "numoutlets": 5,
                    "outlettype": [ "signal", "signal", "signal", "", "dictionary" ],
                    "parameter_enable": 0,
                    "patching_rect": [ 445.0, 44.0, 150.0, 30.0 ],
                    "quality": "basic",
                    "saved_attribute_attributes": {
                        "candicane2": {
                            "expression": ""
                        },
                        "candicane3": {
                            "expression": ""
                        },
                        "candicane4": {
                            "expression": ""
                        },
                        "candicane5": {
                            "expression": ""
                        },
                        "candicane6": {
                            "expression": ""
                        },
                        "candicane7": {
                            "expression": ""
                        },
                        "candicane8": {
                            "expression": ""
                        }
                    }
                }
            },
            {
                "box": {
                    "data": {
                        "clips": [
                            {
                                "absolutepath": "Macintosh HD:/Users/gideonberrie/Library/CloudStorage/OneDrive-Personal/Desktop/sound-synth-tech/week.5b/synth-tech-media-master/instrumental.samples/BassClarinet.ff.D3.stereo.aif",
                                "filename": "BassClarinet.ff.D3.stereo.aif",
                                "filekind": "audiofile",
                                "id": "u691001457",
                                "loop": 1,
                                "content_state": {
                                    "loop": 1
                                }
                            }
                        ]
                    },
                    "id": "obj-2",
                    "maxclass": "playlist~",
                    "mode": "basic",
                    "numinlets": 1,
                    "numoutlets": 5,
                    "outlettype": [ "signal", "signal", "signal", "", "dictionary" ],
                    "parameter_enable": 0,
                    "patching_rect": [ 60.0, 39.0, 150.0, 30.0 ],
                    "quality": "basic",
                    "saved_attribute_attributes": {
                        "candicane2": {
                            "expression": ""
                        },
                        "candicane3": {
                            "expression": ""
                        },
                        "candicane4": {
                            "expression": ""
                        },
                        "candicane5": {
                            "expression": ""
                        },
                        "candicane6": {
                            "expression": ""
                        },
                        "candicane7": {
                            "expression": ""
                        },
                        "candicane8": {
                            "expression": ""
                        }
                    }
                }
            }
        ],
        "lines": [
            {
                "patchline": {
                    "destination": [ "obj-13", 0 ],
                    "source": [ "obj-10", 0 ]
                }
            },
            {
                "patchline": {
                    "destination": [ "obj-14", 0 ],
                    "source": [ "obj-11", 0 ]
                }
            },
            {
                "patchline": {
                    "destination": [ "obj-15", 0 ],
                    "source": [ "obj-12", 0 ]
                }
            },
            {
                "patchline": {
                    "destination": [ "obj-10", 0 ],
                    "source": [ "obj-2", 0 ]
                }
            },
            {
                "patchline": {
                    "destination": [ "obj-22", 0 ],
                    "order": 2,
                    "source": [ "obj-20", 0 ]
                }
            },
            {
                "patchline": {
                    "destination": [ "obj-35", 0 ],
                    "order": 1,
                    "source": [ "obj-20", 0 ]
                }
            },
            {
                "patchline": {
                    "destination": [ "obj-36", 0 ],
                    "order": 0,
                    "source": [ "obj-20", 0 ]
                }
            },
            {
                "patchline": {
                    "destination": [ "obj-23", 0 ],
                    "source": [ "obj-22", 0 ]
                }
            },
            {
                "patchline": {
                    "destination": [ "obj-24", 0 ],
                    "source": [ "obj-23", 0 ]
                }
            },
            {
                "patchline": {
                    "destination": [ "obj-27", 0 ],
                    "source": [ "obj-24", 0 ]
                }
            },
            {
                "patchline": {
                    "destination": [ "obj-27", 0 ],
                    "source": [ "obj-25", 0 ]
                }
            },
            {
                "patchline": {
                    "destination": [ "obj-27", 0 ],
                    "source": [ "obj-26", 0 ]
                }
            },
            {
                "patchline": {
                    "destination": [ "obj-23", 1 ],
                    "source": [ "obj-29", 0 ]
                }
            },
            {
                "patchline": {
                    "destination": [ "obj-33", 1 ],
                    "source": [ "obj-30", 0 ]
                }
            },
            {
                "patchline": {
                    "destination": [ "obj-34", 1 ],
                    "source": [ "obj-31", 0 ]
                }
            },
            {
                "patchline": {
                    "destination": [ "obj-25", 0 ],
                    "source": [ "obj-33", 0 ]
                }
            },
            {
                "patchline": {
                    "destination": [ "obj-26", 0 ],
                    "source": [ "obj-34", 0 ]
                }
            },
            {
                "patchline": {
                    "destination": [ "obj-33", 0 ],
                    "source": [ "obj-35", 0 ]
                }
            },
            {
                "patchline": {
                    "destination": [ "obj-34", 0 ],
                    "source": [ "obj-36", 0 ]
                }
            },
            {
                "patchline": {
                    "destination": [ "obj-11", 0 ],
                    "source": [ "obj-5", 0 ]
                }
            },
            {
                "patchline": {
                    "destination": [ "obj-12", 0 ],
                    "source": [ "obj-6", 0 ]
                }
            }
        ],
        "parameters": {
            "obj-10::obj-3": [ "live.gain~", "live.gain~", 0 ],
            "obj-11::obj-3": [ "live.gain~[3]", "live.gain~", 0 ],
            "obj-11::obj-5": [ "live.gain~[1]", "live.gain~", 0 ],
            "obj-12::obj-20": [ "live.slider", "force.position", 0 ],
            "obj-12::obj-42": [ "live.gain~[5]", "live.gain~[5]", 0 ],
            "obj-12::obj-50": [ "live.slider[1]", "output.position", 0 ],
            "obj-12::obj-51": [ "live.dial", "damping", 0 ],
            "obj-12::obj-56": [ "live.dial[1]", "highFreqDamp", 0 ],
            "parameter_overrides": {
                "obj-11::obj-3": {
                    "parameter_longname": "live.gain~[3]"
                },
                "obj-12::obj-42": {
                    "parameter_longname": "live.gain~[5]",
                    "parameter_shortname": "live.gain~[5]"
                }
            },
            "inherited_shortname": 1
        },
        "autosave": 0,
        "oscreceiveudpport": 0
    }
}