{
    "patcher": {
        "fileversion": 1,
        "appversion": {
            "major": 9,
            "minor": 1,
            "revision": 2,
            "architecture": "x64",
            "modernui": 1
        },
        "classnamespace": "box",
        "rect": [ 406.0, 89.0, 1000.0, 674.0 ],
        "boxes": [
            {
                "box": {
                    "id": "obj-2",
                    "lastchannelcount": 0,
                    "maxclass": "live.gain~",
                    "numinlets": 2,
                    "numoutlets": 5,
                    "outlettype": [ "signal", "signal", "", "float", "list" ],
                    "parameter_enable": 1,
                    "patching_rect": [ 196.0, 719.3333588838577, 48.0, 136.0 ],
                    "saved_attribute_attributes": {
                        "valueof": {
                            "parameter_longname": "live.gain~[1]",
                            "parameter_mmax": 6.0,
                            "parameter_mmin": -70.0,
                            "parameter_modmode": 3,
                            "parameter_shortname": "live.gain~[1]",
                            "parameter_type": 0,
                            "parameter_unitstyle": 4
                        }
                    },
                    "varname": "live.gain~"
                }
            },
            {
                "box": {
                    "id": "obj-17",
                    "maxclass": "newobj",
                    "numinlets": 1,
                    "numoutlets": 1,
                    "outlettype": [ "" ],
                    "patching_rect": [ 189.75373673439026, 39.0, 28.0, 22.0 ],
                    "saved_object_attributes": {
                        "attr_comment": "",
                        "c": ""
                    },
                    "text": "in 1"
                }
            },
            {
                "box": {
                    "id": "obj-15",
                    "maxclass": "newobj",
                    "numinlets": 1,
                    "numoutlets": 0,
                    "patching_rect": [ 196.0, 876.0000261068344, 42.0, 22.0 ],
                    "saved_object_attributes": {
                        "attr_comment": "",
                        "c": ""
                    },
                    "text": "out~ 1"
                }
            },
            {
                "box": {
                    "id": "obj-99",
                    "maxclass": "newobj",
                    "numinlets": 2,
                    "numoutlets": 1,
                    "outlettype": [ "signal" ],
                    "patching_rect": [ 151.75373673439026, 487.05968403816223, 66.0, 22.0 ],
                    "text": "cycle~ 440"
                }
            },
            {
                "box": {
                    "id": "obj-88",
                    "maxclass": "comment",
                    "numinlets": 1,
                    "numoutlets": 0,
                    "patching_rect": [ 926.5306034088135, 483.61224460601807, 30.0, 20.0 ],
                    "text": "fb"
                }
            },
            {
                "box": {
                    "id": "obj-89",
                    "maxclass": "comment",
                    "numinlets": 1,
                    "numoutlets": 0,
                    "patching_rect": [ 910.2040729522705, 512.1836729049683, 127.0, 20.0 ],
                    "text": "never greater than 1!"
                }
            },
            {
                "box": {
                    "id": "obj-90",
                    "maxclass": "message",
                    "numinlets": 2,
                    "numoutlets": 1,
                    "outlettype": [ "" ],
                    "patching_rect": [ 869.3877468109131, 512.1836729049683, 35.0, 22.0 ],
                    "text": "fb $1"
                }
            },
            {
                "box": {
                    "id": "obj-40",
                    "maxclass": "newobj",
                    "numinlets": 1,
                    "numoutlets": 1,
                    "outlettype": [ "" ],
                    "patching_rect": [ 869.3877468109131, 453.0, 87.0, 22.0 ],
                    "text": "loadmess 0.99"
                }
            },
            {
                "box": {
                    "format": 6,
                    "id": "obj-91",
                    "maxclass": "flonum",
                    "maximum": 1.0,
                    "minimum": -1.0,
                    "numinlets": 1,
                    "numoutlets": 2,
                    "outlettype": [ "", "bang" ],
                    "parameter_enable": 0,
                    "patching_rect": [ 869.3877468109131, 483.61224460601807, 50.0, 22.0 ]
                }
            },
            {
                "box": {
                    "id": "obj-92",
                    "maxclass": "message",
                    "numinlets": 2,
                    "numoutlets": 1,
                    "outlettype": [ "" ],
                    "patching_rect": [ 691.8367280960083, 512.1836729049683, 33.0, 22.0 ],
                    "text": "F $1"
                }
            },
            {
                "box": {
                    "id": "obj-93",
                    "maxclass": "newobj",
                    "numinlets": 1,
                    "numoutlets": 1,
                    "outlettype": [ "" ],
                    "patching_rect": [ 691.8367280960083, 453.0, 87.0, 22.0 ],
                    "text": "loadmess 220."
                }
            },
            {
                "box": {
                    "id": "obj-94",
                    "maxclass": "comment",
                    "numinlets": 1,
                    "numoutlets": 0,
                    "patching_rect": [ 665.306116104126, 483.61224460601807, 27.0, 20.0 ],
                    "text": "<f>"
                }
            },
            {
                "box": {
                    "id": "obj-95",
                    "maxclass": "comment",
                    "numinlets": 1,
                    "numoutlets": 0,
                    "patching_rect": [ 748.9795846939087, 483.61224460601807, 89.0, 20.0 ],
                    "text": "F (frequency)"
                }
            },
            {
                "box": {
                    "format": 6,
                    "id": "obj-96",
                    "maxclass": "flonum",
                    "numinlets": 1,
                    "numoutlets": 2,
                    "outlettype": [ "", "bang" ],
                    "parameter_enable": 0,
                    "patching_rect": [ 691.8367280960083, 483.61224460601807, 50.0, 22.0 ]
                }
            },
            {
                "box": {
                    "id": "obj-4",
                    "maxclass": "message",
                    "numinlets": 2,
                    "numoutlets": 1,
                    "outlettype": [ "" ],
                    "patching_rect": [ 549.26118516922, 404.4775974750519, 35.0, 22.0 ],
                    "text": "clear"
                }
            },
            {
                "box": {
                    "id": "obj-36",
                    "maxclass": "button",
                    "numinlets": 1,
                    "numoutlets": 1,
                    "outlettype": [ "bang" ],
                    "parameter_enable": 0,
                    "patching_rect": [ 208.0, 376.8421187400818, 24.0, 24.0 ]
                }
            },
            {
                "box": {
                    "id": "obj-81",
                    "maxclass": "newobj",
                    "numinlets": 1,
                    "numoutlets": 1,
                    "outlettype": [ "bang" ],
                    "patching_rect": [ 383.5895493030548, 356.71640515327454, 58.0, 22.0 ],
                    "text": "loadbang"
                }
            },
            {
                "box": {
                    "id": "obj-82",
                    "maxclass": "message",
                    "numinlets": 2,
                    "numoutlets": 1,
                    "outlettype": [ "" ],
                    "patching_rect": [ 383.5895493030548, 392.53729939460754, 135.0, 22.0 ],
                    "text": "range 0. 1., domain 100"
                }
            },
            {
                "box": {
                    "id": "obj-83",
                    "maxclass": "comment",
                    "numinlets": 1,
                    "numoutlets": 0,
                    "patching_rect": [ 507.4701418876648, 488.05968403816223, 67.0, 20.0 ],
                    "text": "<function>"
                }
            },
            {
                "box": {
                    "addpoints": [ 0.0, 0.0, 0, 28.72340425531915, 0.5487324746449789, 0, 100.0, 0.0, 0 ],
                    "classic_curve": 1,
                    "domain": 100.0,
                    "id": "obj-84",
                    "maxclass": "function",
                    "numinlets": 1,
                    "numoutlets": 4,
                    "outlettype": [ "float", "", "", "bang" ],
                    "parameter_enable": 0,
                    "patching_rect": [ 282.0, 459.1549355983734, 200.0, 100.0 ]
                }
            },
            {
                "box": {
                    "id": "obj-79",
                    "maxclass": "newobj",
                    "numinlets": 1,
                    "numoutlets": 1,
                    "outlettype": [ "signal" ],
                    "patching_rect": [ 197.02239179611206, 682.0895278453827, 85.0, 22.0 ],
                    "text": "gen~ StringLP"
                }
            },
            {
                "box": {
                    "id": "obj-48",
                    "maxclass": "message",
                    "numinlets": 2,
                    "numoutlets": 1,
                    "outlettype": [ "" ],
                    "patching_rect": [ 482.0970084667206, 623.8805747032166, 59.0, 22.0 ],
                    "text": "mute 1, 0"
                }
            },
            {
                "box": {
                    "id": "obj-46",
                    "maxclass": "newobj",
                    "numinlets": 0,
                    "numoutlets": 1,
                    "outlettype": [ "" ],
                    "patching_rect": [ 643.2910325527191, 580.5969941616058, 58.0, 22.0 ],
                    "text": "r mute.all"
                }
            },
            {
                "box": {
                    "id": "obj-41",
                    "maxclass": "newobj",
                    "numinlets": 1,
                    "numoutlets": 3,
                    "outlettype": [ "int", "int", "int" ],
                    "patching_rect": [ 573.1417813301086, 658.208931684494, 56.0, 22.0 ],
                    "text": "thispoly~"
                }
            },
            {
                "box": {
                    "id": "obj-27",
                    "maxclass": "message",
                    "numinlets": 2,
                    "numoutlets": 1,
                    "outlettype": [ "" ],
                    "patching_rect": [ 573.1417813301086, 580.5969941616058, 59.0, 22.0 ],
                    "text": "mute 0, 1"
                }
            },
            {
                "box": {
                    "fontface": 1,
                    "id": "obj-16",
                    "maxclass": "comment",
                    "numinlets": 1,
                    "numoutlets": 0,
                    "patching_rect": [ 87.5, 98.0, 105.0, 20.0 ],
                    "text": "<bach.playkeys>",
                    "textcolor": [ 0.870588, 0.415686, 0.062745, 1.0 ]
                }
            },
            {
                "box": {
                    "fontface": 1,
                    "id": "obj-13",
                    "maxclass": "comment",
                    "numinlets": 1,
                    "numoutlets": 0,
                    "patching_rect": [ 234.05797296762466, 51.0, 133.33333444595337, 20.0 ],
                    "text": "<in> inlet for poly~",
                    "textcolor": [ 0.870588, 0.415686, 0.062745, 1.0 ]
                }
            },
            {
                "box": {
                    "fontface": 1,
                    "id": "obj-9",
                    "maxclass": "comment",
                    "numinlets": 1,
                    "numoutlets": 0,
                    "patching_rect": [ 130.0, 253.0, 61.0, 20.0 ],
                    "text": "<trigger>",
                    "textcolor": [ 0.870588, 0.415686, 0.062745, 1.0 ]
                }
            },
            {
                "box": {
                    "fontface": 3,
                    "fontsize": 20.0,
                    "id": "obj-6",
                    "linecount": 3,
                    "maxclass": "comment",
                    "numinlets": 1,
                    "numoutlets": 0,
                    "patching_rect": [ 63.0, 13.0, 127.0, 74.0 ],
                    "text": "Polyphonic\nSynth\nEngine",
                    "textjustification": 2
                }
            },
            {
                "box": {
                    "fontface": 2,
                    "id": "obj-20",
                    "maxclass": "comment",
                    "numinlets": 1,
                    "numoutlets": 0,
                    "patching_rect": [ 457.0, 50.0, 297.0, 20.0 ],
                    "text": "We're interested in the note_LLLL, always in this form:",
                    "textcolor": [ 0.011765, 0.396078, 0.752941, 1.0 ]
                }
            },
            {
                "box": {
                    "fontface": 1,
                    "fontname": "Courier New",
                    "fontsize": 9.0,
                    "id": "obj-19",
                    "maxclass": "comment",
                    "numinlets": 1,
                    "numoutlets": 0,
                    "patching_rect": [ 476.95247524752494, 72.0, 268.0, 17.0 ],
                    "text": "[pitch-in-midicents duration velocity note-flag]",
                    "textcolor": [ 0.466667, 0.254902, 0.607843, 1.0 ]
                }
            },
            {
                "box": {
                    "fontface": 1,
                    "fontname": "Courier New",
                    "fontsize": 9.0,
                    "id": "obj-25",
                    "maxclass": "comment",
                    "numinlets": 1,
                    "numoutlets": 0,
                    "patching_rect": [ 476.95247524752494, 35.0, 425.0, 17.0 ],
                    "text": "note <voice_number> <MIDI_channel> [<chord_onset> [<NOTE_LLLL>] <chord_flag>]",
                    "textcolor": [ 0.466667, 0.254902, 0.607843, 1.0 ]
                }
            },
            {
                "box": {
                    "fontface": 2,
                    "id": "obj-12",
                    "maxclass": "comment",
                    "numinlets": 1,
                    "numoutlets": 0,
                    "patching_rect": [ 457.0, 13.0, 317.0, 20.0 ],
                    "text": "Playback syntax from bach.roll is always a list in this form:",
                    "textcolor": [ 0.011765, 0.396078, 0.752941, 1.0 ]
                }
            },
            {
                "box": {
                    "fontface": 2,
                    "id": "obj-1",
                    "maxclass": "comment",
                    "numinlets": 1,
                    "numoutlets": 0,
                    "patching_rect": [ 224.0, 23.0, 217.0, 20.0 ],
                    "text": "<= Playout (7th outlet) from <bach.roll>",
                    "textcolor": [ 0.011765, 0.396078, 0.752941, 1.0 ]
                }
            },
            {
                "box": {
                    "fontface": 2,
                    "id": "obj-45",
                    "maxclass": "comment",
                    "numinlets": 1,
                    "numoutlets": 0,
                    "patching_rect": [ 382.83333333333337, 171.0, 24.0, 20.0 ],
                    "text": "ms",
                    "textcolor": [ 0.011765, 0.396078, 0.752941, 1.0 ]
                }
            },
            {
                "box": {
                    "color": [ 0.784314, 0.145098, 0.023529, 1.0 ],
                    "id": "obj-44",
                    "maxclass": "newobj",
                    "numinlets": 2,
                    "numoutlets": 2,
                    "outlettype": [ "signal", "bang" ],
                    "patching_rect": [ 383.5895493030548, 591.0447549819946, 118.03388929367065, 22.0 ],
                    "text": "line~"
                }
            },
            {
                "box": {
                    "id": "obj-43",
                    "maxclass": "message",
                    "numinlets": 2,
                    "numoutlets": 1,
                    "outlettype": [ "" ],
                    "patching_rect": [ 317.5, 217.0, 81.0, 22.0 ],
                    "text": "setdomain $1"
                }
            },
            {
                "box": {
                    "id": "obj-42",
                    "maxclass": "message",
                    "numinlets": 2,
                    "numoutlets": 1,
                    "outlettype": [ "" ],
                    "patching_rect": [ 443.0, 217.0, 82.0, 22.0 ],
                    "text": "setrange 0 $1"
                }
            },
            {
                "box": {
                    "id": "obj-39",
                    "maxclass": "newobj",
                    "numinlets": 2,
                    "numoutlets": 1,
                    "outlettype": [ "float" ],
                    "patching_rect": [ 443.0, 189.0, 39.0, 22.0 ],
                    "text": "/ 127."
                }
            },
            {
                "box": {
                    "id": "obj-37",
                    "maxclass": "newobj",
                    "numinlets": 1,
                    "numoutlets": 3,
                    "outlettype": [ "float", "bang", "bang" ],
                    "patching_rect": [ 192.0, 252.0, 40.0, 22.0 ],
                    "text": "t f b b"
                }
            },
            {
                "box": {
                    "color": [ 0.784314, 0.145098, 0.023529, 1.0 ],
                    "id": "obj-35",
                    "maxclass": "newobj",
                    "numinlets": 2,
                    "numoutlets": 1,
                    "outlettype": [ "signal" ],
                    "patching_rect": [ 198.5149290561676, 617.9104256629944, 204.83333333333337, 22.0 ],
                    "text": "*~"
                }
            },
            {
                "box": {
                    "fontface": 1,
                    "id": "obj-14",
                    "maxclass": "comment",
                    "numinlets": 1,
                    "numoutlets": 0,
                    "patching_rect": [ 163.0, 158.0, 27.0, 20.0 ],
                    "text": "<f>",
                    "textcolor": [ 0.870588, 0.415686, 0.062745, 1.0 ]
                }
            },
            {
                "box": {
                    "fontface": 2,
                    "id": "obj-11",
                    "maxclass": "comment",
                    "numinlets": 1,
                    "numoutlets": 0,
                    "patching_rect": [ 510.0, 171.0, 47.0, 20.0 ],
                    "text": "volume",
                    "textcolor": [ 0.011765, 0.396078, 0.752941, 1.0 ]
                }
            },
            {
                "box": {
                    "fontface": 2,
                    "id": "obj-10",
                    "maxclass": "comment",
                    "numinlets": 1,
                    "numoutlets": 0,
                    "patching_rect": [ 261.0, 171.0, 34.0, 20.0 ],
                    "text": "pitch",
                    "textcolor": [ 0.011765, 0.396078, 0.752941, 1.0 ]
                }
            },
            {
                "box": {
                    "fontface": 2,
                    "id": "obj-8",
                    "maxclass": "comment",
                    "numinlets": 1,
                    "numoutlets": 0,
                    "patching_rect": [ 28.5, 197.0, 164.0, 20.0 ],
                    "text": "convert from midicents to Hz.",
                    "textcolor": [ 0.011765, 0.396078, 0.752941, 1.0 ]
                }
            },
            {
                "box": {
                    "fontface": 2,
                    "id": "obj-7",
                    "maxclass": "comment",
                    "numinlets": 1,
                    "numoutlets": 0,
                    "patching_rect": [ 244.0, 224.0, 37.0, 20.0 ],
                    "text": "<Hz>",
                    "textcolor": [ 0.011765, 0.396078, 0.752941, 1.0 ]
                }
            },
            {
                "box": {
                    "format": 6,
                    "id": "obj-33",
                    "maxclass": "flonum",
                    "numinlets": 1,
                    "numoutlets": 2,
                    "outlettype": [ "", "bang" ],
                    "parameter_enable": 0,
                    "patching_rect": [ 192.0, 224.0, 50.0, 22.0 ]
                }
            },
            {
                "box": {
                    "id": "obj-32",
                    "maxclass": "newobj",
                    "numinlets": 2,
                    "numoutlets": 1,
                    "outlettype": [ "" ],
                    "patching_rect": [ 192.0, 196.0, 103.0, 22.0 ],
                    "text": "bach.mc2f @out t"
                }
            },
            {
                "box": {
                    "fontface": 2,
                    "id": "obj-31",
                    "maxclass": "comment",
                    "numinlets": 1,
                    "numoutlets": 0,
                    "patching_rect": [ 495.0, 157.0, 63.0, 20.0 ],
                    "text": "<velocity>",
                    "textcolor": [ 0.011765, 0.396078, 0.752941, 1.0 ]
                }
            },
            {
                "box": {
                    "fontface": 2,
                    "id": "obj-30",
                    "maxclass": "comment",
                    "numinlets": 1,
                    "numoutlets": 0,
                    "patching_rect": [ 368.5, 157.0, 66.0, 20.0 ],
                    "text": "<duration>",
                    "textcolor": [ 0.011765, 0.396078, 0.752941, 1.0 ]
                }
            },
            {
                "box": {
                    "fontface": 2,
                    "id": "obj-29",
                    "maxclass": "comment",
                    "numinlets": 1,
                    "numoutlets": 0,
                    "patching_rect": [ 244.0, 157.0, 73.0, 20.0 ],
                    "text": "<midicents>",
                    "textcolor": [ 0.011765, 0.396078, 0.752941, 1.0 ]
                }
            },
            {
                "box": {
                    "format": 6,
                    "id": "obj-28",
                    "maxclass": "flonum",
                    "numinlets": 1,
                    "numoutlets": 2,
                    "outlettype": [ "", "bang" ],
                    "parameter_enable": 0,
                    "patching_rect": [ 443.0, 157.0, 50.0, 22.0 ]
                }
            },
            {
                "box": {
                    "format": 6,
                    "id": "obj-26",
                    "maxclass": "flonum",
                    "numinlets": 1,
                    "numoutlets": 2,
                    "outlettype": [ "", "bang" ],
                    "parameter_enable": 0,
                    "patching_rect": [ 317.5, 157.0, 50.0, 22.0 ]
                }
            },
            {
                "box": {
                    "format": 6,
                    "id": "obj-24",
                    "maxclass": "flonum",
                    "numinlets": 1,
                    "numoutlets": 2,
                    "outlettype": [ "", "bang" ],
                    "parameter_enable": 0,
                    "patching_rect": [ 192.0, 157.0, 50.0, 22.0 ]
                }
            },
            {
                "box": {
                    "fontface": 2,
                    "id": "obj-22",
                    "linecount": 3,
                    "maxclass": "comment",
                    "numinlets": 1,
                    "numoutlets": 0,
                    "patching_rect": [ 464.0, 98.0, 426.0, 47.0 ],
                    "text": "<= <bach.playkeys> is a simple way to get the info we need to make our own synthesizers. @out t means it will return \"text output\" that we can use in our regular Max objects. Without @out t, we would get an encoded bach list (llll).",
                    "textcolor": [ 0.011765, 0.396078, 0.752941, 1.0 ]
                }
            },
            {
                "box": {
                    "id": "obj-21",
                    "maxclass": "newobj",
                    "numinlets": 1,
                    "numoutlets": 3,
                    "outlettype": [ "", "", "" ],
                    "patching_rect": [ 192.0, 98.0, 270.0, 22.0 ],
                    "saved_object_attributes": {
                        "versionnumber": 80100
                    },
                    "text": "bach.playkeys cents duration velocity @out t"
                }
            }
        ],
        "lines": [
            {
                "patchline": {
                    "destination": [ "obj-21", 0 ],
                    "source": [ "obj-17", 0 ]
                }
            },
            {
                "patchline": {
                    "destination": [ "obj-15", 0 ],
                    "source": [ "obj-2", 0 ]
                }
            },
            {
                "patchline": {
                    "destination": [ "obj-24", 0 ],
                    "source": [ "obj-21", 0 ]
                }
            },
            {
                "patchline": {
                    "destination": [ "obj-26", 0 ],
                    "source": [ "obj-21", 1 ]
                }
            },
            {
                "patchline": {
                    "destination": [ "obj-28", 0 ],
                    "source": [ "obj-21", 2 ]
                }
            },
            {
                "patchline": {
                    "destination": [ "obj-32", 0 ],
                    "source": [ "obj-24", 0 ]
                }
            },
            {
                "patchline": {
                    "destination": [ "obj-43", 0 ],
                    "source": [ "obj-26", 0 ]
                }
            },
            {
                "patchline": {
                    "destination": [ "obj-41", 0 ],
                    "source": [ "obj-27", 0 ]
                }
            },
            {
                "patchline": {
                    "destination": [ "obj-39", 0 ],
                    "source": [ "obj-28", 0 ]
                }
            },
            {
                "patchline": {
                    "destination": [ "obj-33", 0 ],
                    "source": [ "obj-32", 0 ]
                }
            },
            {
                "patchline": {
                    "destination": [ "obj-37", 0 ],
                    "source": [ "obj-33", 0 ]
                }
            },
            {
                "patchline": {
                    "destination": [ "obj-79", 0 ],
                    "source": [ "obj-35", 0 ]
                }
            },
            {
                "patchline": {
                    "destination": [ "obj-84", 0 ],
                    "source": [ "obj-36", 0 ]
                }
            },
            {
                "patchline": {
                    "color": [ 0.0, 0.9768045545, 0.0, 1.0 ],
                    "destination": [ "obj-27", 0 ],
                    "source": [ "obj-37", 2 ]
                }
            },
            {
                "patchline": {
                    "destination": [ "obj-36", 0 ],
                    "source": [ "obj-37", 1 ]
                }
            },
            {
                "patchline": {
                    "destination": [ "obj-99", 0 ],
                    "source": [ "obj-37", 0 ]
                }
            },
            {
                "patchline": {
                    "destination": [ "obj-42", 0 ],
                    "source": [ "obj-39", 0 ]
                }
            },
            {
                "patchline": {
                    "destination": [ "obj-84", 0 ],
                    "source": [ "obj-4", 0 ]
                }
            },
            {
                "patchline": {
                    "destination": [ "obj-91", 0 ],
                    "source": [ "obj-40", 0 ]
                }
            },
            {
                "patchline": {
                    "destination": [ "obj-35", 1 ],
                    "source": [ "obj-44", 0 ]
                }
            },
            {
                "patchline": {
                    "destination": [ "obj-48", 0 ],
                    "source": [ "obj-44", 1 ]
                }
            },
            {
                "patchline": {
                    "destination": [ "obj-41", 0 ],
                    "source": [ "obj-46", 0 ]
                }
            },
            {
                "patchline": {
                    "color": [ 1.0, 0.1491314173, 0.0, 1.0 ],
                    "destination": [ "obj-41", 0 ],
                    "source": [ "obj-48", 0 ]
                }
            },
            {
                "patchline": {
                    "destination": [ "obj-2", 0 ],
                    "source": [ "obj-79", 0 ]
                }
            },
            {
                "patchline": {
                    "destination": [ "obj-82", 0 ],
                    "source": [ "obj-81", 0 ]
                }
            },
            {
                "patchline": {
                    "destination": [ "obj-84", 0 ],
                    "source": [ "obj-82", 0 ]
                }
            },
            {
                "patchline": {
                    "destination": [ "obj-44", 0 ],
                    "source": [ "obj-84", 1 ]
                }
            },
            {
                "patchline": {
                    "destination": [ "obj-79", 0 ],
                    "source": [ "obj-90", 0 ]
                }
            },
            {
                "patchline": {
                    "destination": [ "obj-90", 0 ],
                    "source": [ "obj-91", 0 ]
                }
            },
            {
                "patchline": {
                    "destination": [ "obj-79", 0 ],
                    "source": [ "obj-92", 0 ]
                }
            },
            {
                "patchline": {
                    "destination": [ "obj-96", 0 ],
                    "source": [ "obj-93", 0 ]
                }
            },
            {
                "patchline": {
                    "destination": [ "obj-92", 0 ],
                    "source": [ "obj-96", 0 ]
                }
            },
            {
                "patchline": {
                    "destination": [ "obj-35", 0 ],
                    "source": [ "obj-99", 0 ]
                }
            }
        ],
        "oscreceiveudpport": 0
    }
}